<?xml version="1.0" standalone="no"?>
<!DOCTYPE svg PUBLIC "-//W3C//DTD SVG 20010904//EN"
 "http://www.w3.org/TR/2001/REC-SVG-20010904/DTD/svg10.dtd">
<svg version="1.0" xmlns="http://www.w3.org/2000/svg"
 width="661.000000pt" height="661.000000pt" viewBox="0 0 661.000000 661.000000"
 preserveAspectRatio="xMidYMid meet">
<metadata>
Created by potrace 1.14, written by Peter Selinger 2001-2017
</metadata>
<g transform="translate(0.000000,661.000000) scale(0.100000,-0.100000)"
fill="#000000" stroke="none">
<path d="M2930 5649 c-350 -21 -631 -74 -920 -173 -74 -26 -164 -53 -200 -61
-69 -14 -247 -65 -395 -114 -249 -81 -530 -230 -710 -375 -93 -76 -225 -199
-247 -230 -17 -23 -8 -18 36 22 99 90 352 257 539 356 132 71 348 156 391 156
6 0 -34 -26 -89 -58 -235 -134 -581 -411 -782 -627 -173 -184 -358 -483 -388
-625 l-7 -35 59 56 c61 58 155 133 236 188 l48 33 -45 -84 c-76 -141 -121
-308 -99 -366 9 -22 13 -19 70 55 162 210 519 569 708 714 94 72 238 165 314
204 l34 17 -32 -54 c-288 -485 -360 -1044 -205 -1586 170 -596 610 -1042 1180
-1198 413 -112 835 -71 1229 120 902 438 1335 1556 962 2482 -52 128 -64 152
-124 252 -25 41 -43 76 -40 78 7 7 376 -159 512 -230 122 -64 302 -171 409
-242 l59 -39 -6 -200 c-4 -110 -11 -229 -17 -265 -5 -36 -14 -114 -20 -175
-37 -391 -150 -779 -363 -1255 -28 -63 -66 -142 -85 -175 -62 -112 -67 -124
-55 -136 17 -17 40 3 163 146 155 182 253 329 440 665 159 286 226 431 275
595 51 174 56 185 74 185 35 0 161 49 277 109 144 73 254 159 254 198 l0 26
-102 -8 c-108 -9 -305 -8 -319 1 -5 2 36 45 90 94 95 87 147 145 265 299 58
76 166 278 166 312 0 28 -24 24 -151 -22 -132 -48 -261 -87 -454 -135 l-140
-34 -42 46 -41 47 51 40 c29 22 91 79 138 127 81 81 110 123 95 138 -6 5 -168
-13 -346 -38 -80 -12 -198 -12 -205 0 -10 16 -190 150 -305 227 -201 134 -288
178 -527 269 -279 105 -686 207 -1033 258 -92 14 -407 39 -435 35 -5 -1 -71
-6 -145 -10z m518 -1006 c233 -730 237 -744 220 -754 -7 -5 -52 -22 -99 -38
l-86 -29 -81 192 c-45 105 -129 303 -187 440 -58 137 -104 250 -103 251 5 5
263 134 268 134 3 1 33 -88 68 -196z m384 31 c73 -5 77 -7 82 -32 3 -15 27
-151 52 -302 25 -151 50 -297 55 -324 4 -27 6 -52 4 -56 -4 -6 -148 -34 -178
-35 -12 0 -33 64 -52 152 -8 40 -44 190 -80 334 -36 144 -65 265 -65 270 0 5
24 7 53 4 28 -2 87 -7 129 -11z m491 -1306 c-13 -72 -78 -240 -140 -366 -97
-198 -207 -343 -359 -477 -365 -319 -840 -439 -1269 -321 -95 26 -272 96 -336
131 -128 73 -366 289 -446 406 l-31 45 71 36 c95 49 267 125 399 179 99 39
109 42 120 26 12 -15 17 -13 57 22 36 31 69 46 175 79 110 35 289 85 373 105
20 4 22 0 28 -69 4 -41 11 -77 16 -80 5 -2 56 42 115 98 58 57 111 106 117
109 14 7 227 43 392 65 193 26 398 41 567 43 l158 1 -7 -32z"/>
<path d="M4260 1419 c-141 -30 -646 -96 -955 -125 -289 -27 -891 -11 -1225 32
-129 16 -312 53 -406 80 -99 28 -99 -2 -1 -98 l72 -71 -59 32 c-32 18 -61 30
-64 27 -12 -12 35 -47 122 -92 50 -26 93 -48 95 -50 2 -2 -24 -33 -57 -69 -61
-65 -80 -101 -68 -130 10 -28 60 -15 185 45 124 60 153 68 181 50 13 -9 13
-12 -2 -20 -9 -6 -41 -30 -72 -55 -53 -44 -69 -76 -46 -90 12 -7 102 41 172
92 l47 34 61 -20 c82 -27 264 -67 380 -83 56 -8 185 -13 315 -13 221 1 383 18
559 59 l59 14 103 -54 c108 -56 134 -63 152 -41 15 18 -15 66 -62 102 -20 15
-33 32 -30 37 12 20 91 0 281 -71 106 -39 206 -71 222 -71 87 0 2 123 -142
204 l-58 33 83 33 c109 44 171 75 187 94 12 14 11 16 -7 16 -11 0 -36 -7 -57
-16 -70 -29 -46 -7 57 54 116 67 158 102 158 130 0 18 -20 34 -38 31 -4 -1
-68 -14 -142 -30z"/>
</g>
</svg>
